<?xml version="1.0"?>
<svg xmlns="http://www.w3.org/2000/svg" xmlns:xlink="http://www.w3.org/1999/xlink" version="1.1" id="Capa_1" x="0px" y="0px" viewBox="0 0 512 512" style="enable-background:new 0 0 512 512;" xml:space="preserve" width="512px" height="512px" class=""><g><g>
	<g>
		<path style="fill:#E6194F" d="M512,256c0,141.38-114.62,256-256,256S0,397.38,0,256C0,117.97,109.26,5.44,246,0.19    C249.32,0.06,252.65,0,256,0c3.35,0,6.68,0.06,10,0.19C402.74,5.44,512,117.97,512,256z" data-original="#68FCDF" class="" data-old_color="#68FCDF"/>
		<path style="fill:#CECA65" d="M512,256c0,141.38-114.62,256-256,256S0,397.38,0,256c0-46.22,12.25-89.57,33.68-127    C77.8,206.07,160.84,258,256,258s178.21-51.93,222.32-129C499.75,166.43,512,209.78,512,256z" data-original="#10E2C4" class="" data-old_color="#10E2C4"/>
		<path style="fill:#BA1A1A" d="M481.26,377.7v0.01C439.46,454.93,359.1,508.23,266,511.8c-3.32,0.14-6.65,0.2-10,0.2    c-3.35,0-6.68-0.06-10-0.2c-93.1-3.57-173.46-56.87-215.26-134.09v-0.01H481.26z" data-original="#1ABA9F" class="" data-old_color="#1ABA9F"/>
	</g>
	<path style="fill:#FFFFFF" d="M266,443.15v68.65c-3.32,0.14-6.65,0.2-10,0.2c-3.35,0-6.68-0.06-10-0.2v-68.65H266z" data-original="#323B5A" class="" data-old_color="#323B5A"/>
	<path style="fill:#20273A;" d="M266,443.15v68.65c-3.32,0.14-6.65,0.2-10,0.2v-68.85H266z" data-original="#20273A" class=""/>
	<g>
		<g>
			<g>
				<path style="fill:#FFFFFF;" d="M219.389,282.156v64.166h-20.024v-64.556c0-5.729,4.815-10.335,10.625-9.991      C215.342,272.092,219.389,276.795,219.389,282.156z" data-original="#FFFFFF" class=""/>
				<rect x="199.364" y="309.166" style="fill:#D0F6FF;" width="20.024" height="37.156" data-original="#D0F6FF" class=""/>
				<path style="fill:#D0F6FF;" d="M219.389,281.766v64.556H209.38v-74.508c0-0.031,0.026-0.057,0.058-0.057      C214.938,271.788,219.389,276.259,219.389,281.766z" data-original="#D0F6FF" class=""/>
			</g>
			<g>
				<path style="fill:#FFFFFF;" d="M312.636,282.156v64.166h-20.024v-64.556c0-5.728,4.815-10.335,10.625-9.991      C308.589,272.092,312.636,276.794,312.636,282.156z" data-original="#FFFFFF" class=""/>
				<path style="fill:#D0F6FF;" d="M312.636,281.766v64.556h-10.009v-74.508c0-0.031,0.026-0.057,0.058-0.057      C308.185,271.788,312.636,276.259,312.636,281.766z" data-original="#D0F6FF" class=""/>
				<rect x="292.611" y="309.166" style="fill:#D0F6FF;" width="10.015" height="37.156" data-original="#D0F6FF" class=""/>
				<rect x="302.627" y="309.166" style="fill:#8FC9F7;" width="10.009" height="37.156" data-original="#8FC9F7" class=""/>
			</g>
		</g>
		<rect x="209.38" y="309.166" style="fill:#8FC9F7;" width="10.009" height="37.156" data-original="#8FC9F7" class=""/>
		<g>
			<path style="fill:#474F6F;" d="M337.035,328.849v45.709c0,0.627-0.006,1.247-0.019,1.868     c-0.506,22.291-11.56,41.872-28.286,54.287c-6.318,4.691-10.079,12.079-10.079,19.948v4.932h-85.302v-4.932     c0-7.869-3.761-15.257-10.079-19.948c-16.726-12.415-27.78-31.996-28.286-54.287c-0.013-0.62-0.019-1.241-0.019-1.868v-45.709     H337.035z" data-original="#474F6F" class=""/>
			<path style="fill:#FFFFFF" d="M337.035,328.849v45.709c0,0.627-0.006,1.247-0.019,1.868     c-0.506,22.291-11.56,41.872-28.286,54.287c-6.318,4.691-10.079,12.079-10.079,19.948v4.932H256V328.849H337.035z" data-original="#323B5A" class="" data-old_color="#323B5A"/>
			<rect x="174.965" y="328.849" style="fill:#FFFFFF" width="162.069" height="29.457" data-original="#323B5A" class="" data-old_color="#323B5A"/>
			<rect x="256" y="328.849" style="fill:#20273A;" width="81.035" height="29.457" data-original="#20273A" class=""/>
			<path style="fill:#FFFFFF" d="M308.73,430.712c-6.318,4.691-10.079,12.079-10.079,19.948v4.932h-85.302v-4.932     c0-7.869-3.761-15.257-10.079-19.948H308.73z" data-original="#323B5A" class="" data-old_color="#323B5A"/>
			<path style="fill:#20273A;" d="M308.73,430.712c-6.318,4.691-10.079,12.079-10.079,19.948v4.932H256v-24.88H308.73z" data-original="#20273A" class=""/>
		</g>
	</g>
	<g>
		<path style="fill:#FFFFFF" d="M266,0.19v68.66h-20V0.19C249.32,0.06,252.65,0,256,0C259.35,0,262.68,0.06,266,0.19z" data-original="#323B5A" class="" data-old_color="#323B5A"/>
		<path style="fill:#20273A;" d="M266,0.19v68.66h-10V0C259.35,0,262.68,0.06,266,0.19z" data-original="#20273A" class=""/>
		<g>
			<g>
				<path style="fill:#474F6F;" d="M337.035,183.151v-45.709c0-0.627-0.006-1.247-0.019-1.868      c-0.506-22.291-11.56-41.872-28.286-54.287c-6.318-4.691-10.079-12.079-10.079-19.948v-4.932h-85.302v4.932      c0,7.869-3.761,15.257-10.079,19.948c-16.726,12.415-27.78,31.996-28.286,54.287c-0.013,0.62-0.019,1.241-0.019,1.868v45.709      H337.035z" data-original="#474F6F" class=""/>
				<path style="fill:#FFFFFF" d="M337.035,183.151v-45.709c0-0.627-0.006-1.247-0.019-1.868      c-0.506-22.291-11.56-41.872-28.286-54.287c-6.318-4.691-10.079-12.079-10.079-19.948v-4.932H256v126.743H337.035z" data-original="#323B5A" class="" data-old_color="#323B5A"/>
				<rect x="174.965" y="153.694" style="fill:#FFFFFF" width="162.069" height="29.457" data-original="#323B5A" class="" data-old_color="#323B5A"/>
				<rect x="256" y="153.694" style="fill:#20273A;" width="81.035" height="29.457" data-original="#20273A" class=""/>
				<path style="fill:#FFFFFF" d="M308.73,81.288c-6.318-4.691-10.079-12.079-10.079-19.948v-4.932h-85.302v4.932      c0,7.869-3.761,15.257-10.079,19.948H308.73z" data-original="#323B5A" class="" data-old_color="#323B5A"/>
				<path style="fill:#20273A;" d="M308.73,81.288c-6.318-4.691-10.079-12.079-10.079-19.948v-4.932H256v24.88H308.73z" data-original="#20273A" class=""/>
			</g>
		</g>
	</g>
	<g>
		<path style="fill:#14DD12" d="M131.502,253.412l240.754-72.255c7.579-2.276,15.568,2.023,17.844,9.602l0,0    c2.276,7.579-2.023,15.568-9.602,17.844l-240.754,72.255c-7.579,2.276-15.568-2.023-17.844-9.602l0,0    C119.624,263.677,123.923,255.688,131.502,253.412z" data-original="#DD1265" class="" data-old_color="#DD1265"/>
		<path style="fill:#1992BC" d="M131.807,253.412l240.754-72.255c7.579-2.276,15.568,2.023,17.844,9.602l0,0l-268.2,80.497h0    C119.929,263.677,124.228,255.688,131.807,253.412z" data-original="#FF3445" class="active-path" data-old_color="#FF3445"/>
	</g>
</g></g> </svg>
