<?xml version="1.0"?>
<svg xmlns="http://www.w3.org/2000/svg" height="512px" viewBox="-16 0 448 448.22434" width="512px" class="hovered-paths"><g><path d="m387.3125 318.496094h-.046875c-1.679687-1.265625-3.410156-2.449219-5.183594-3.550782-.425781-.273437-.875-.503906-1.304687-.761718-1.386719-.800782-2.785156-1.597656-4.21875-2.398438-.453125-.234375-.917969-.433594-1.382813-.65625-1.457031-.703125-2.917969-1.367187-4.421875-1.96875-.441406-.175781-.882812-.335937-1.328125-.503906-1.539062-.582031-3.089843-1.113281-4.65625-1.601562l-1.34375-.382813c-1.601562-.4375-3.203125-.820313-4.800781-1.152344-.480469-.105469-.960938-.207031-1.441406-.296875-1.597656-.292968-3.160156-.511718-4.757813-.703125-.523437-.054687-1.042969-.136719-1.601562-.183593-1.601563-.160157-3.199219-.230469-4.847657-.273438-.503906 0-1.007812-.054688-1.511718-.0625-.800782 0-1.664063.0625-2.496094.089844-1.601562.046875-3.144531.09375-4.695312.238281-.714844.0625-1.425782.175781-2.136719.265625-1.488281.183594-2.960938.398438-4.417969.671875-.917969.175781-1.832031.375-2.734375.582031-1.113281.257813-2.207031.542969-3.304687.847656-1.09375.304688-2.304688.65625-3.441407 1.039063-.597656.203125-1.183593.441406-1.773437.65625-10.535156 3.894531-20.039063 10.15625-27.777344 18.296875l-.40625.449219c-1.191406 1.277343-2.351562 2.589843-3.449219 3.953125-.488281.605468-.9375 1.246094-1.398437 1.863281-.800782 1.054687-1.601563 2.09375-2.328125 3.199219-1.175781 1.757812-2.289063 3.566406-3.304688 5.433594-.082031.140624-.152343.292968-.234375.445312-1.023437 1.90625-1.972656 3.863281-2.832031 5.871094l-.09375.226562c-.878906 2.09375-1.664063 4.226563-2.351563 6.398438v.113281c-.671874 2.152344-1.234374 4.351563-1.695312 6.582031 0 .128906-.066406.257813-.089844.386719-.351562 1.726563-.582031 3.503906-.800781 5.269531-.09375.738282-.222656 1.472656-.285156 2.210938-.160157 1.597656-.210938 3.292968-.257813 4.957031 0 .738281-.078125 1.480469-.078125 2.21875 0 1.878906.125 3.757813.277344 5.597656.039063.480469 0 .960938.082031 1.441407.234375 2.367187.59375 4.71875 1.070313 7.046874 7.273437 36.339844 40.9375 61.222657 77.8125 57.511719 36.871093-3.710937 64.902343-34.804687 64.789062-71.863281.085938-22.65625-10.605469-44.003906-28.800781-57.503906zm6.3125 35.28125-59.878906 59.878906c-3.125 3.121094-8.191406 3.121094-11.3125 0l-25.9375-25.945312c-3.03125-3.136719-2.988282-8.128907.097656-11.214844 3.085938-3.085938 8.074219-3.128906 11.214844-.097656l20.304687 20.289062 54.222657-54.222656c3.140624-3.03125 8.128906-2.988282 11.214843.097656 3.085938 3.085938 3.128907 8.074219.097657 11.214844zm0 0" data-original="#000000" class="hovered-path active-path" data-old_color="#000000" fill="#009C23"/><path d="m312.113281 64h-16v56h-16v-56h-16v56h-16v-56h-16v56h-16v-56h-16v56h-16v-56h-16v56h-16v-56h-16v56h-16v-56h-16v56h-16v-56h-16v144h48v32h32v32h80v-32h32v-32h48zm0 0" data-original="#000000" class="hovered-path active-path" data-old_color="#000000" fill="#009C23"/><path d="m256.40625 370.113281c.179688-2.59375.464844-5.136719.859375-7.664062.117187-.800781.125-1.601563.269531-2.402344.082032-.472656.21875-.925781.3125-1.398437.097656-.472657.167969-.738282.25-1.105469.53125-2.453125 1.152344-4.867188 1.863282-7.238281.09375-.328126.199218-.640626.304687-.96875.734375-2.304688 1.566406-4.566407 2.496094-6.785157.175781-.429687.34375-.863281.527343-1.285156.855469-1.96875 1.792969-3.890625 2.78125-5.777344.328126-.625.632813-1.265625.96875-1.878906.746094-1.335937 1.601563-2.617187 2.402344-3.90625 10.523438-16.921875 26.457032-29.792969 45.214844-36.519531l1.441406-.527344c1.535156-.511719 3.085938-.96875 4.65625-1.410156 1.191406-.324219 2.398438-.636719 3.589844-.917969s2.402344-.550781 3.664062-.800781c1.679688-.3125 3.367188-.550782 5.0625-.800782.96875-.125 1.921876-.269531 2.898438-.359374.328125 0 .648438-.09375.976562-.121094.589844-.046875 1.191407 0 1.78125 0 1.800782-.101563 3.585938-.269532 5.410157-.269532 1.429687 0 2.847656.101563 4.261719.167969.425781 0 .851562 0 1.273437.054688 3.761719.234375 7.503906.714843 11.199219 1.441406l.800781.160156c7.742187 1.554688 15.234375 4.167969 22.265625 7.757813l.175781.074218v-289.632812c0-4.417969-3.582031-8-8-8h-368c-4.417969 0-8 3.582031-8 8v368c0 4.417969 3.582031 8 8 8h248.351563c-.058594-.59375 0-1.191406 0-1.785156-.183594-2.070313-.351563-4.144532-.351563-6.214844 0-.800781.09375-1.542969.117188-2.328125.035156-1.183594.097656-2.367187.175781-3.558594zm-64.292969-18.113281h-160v-16h160zm48 0h-32v-16h32zm8-96v32h-112v-32h-32v-32h-48v-176h272v176h-48v32zm0 0" data-original="#000000" class="hovered-path active-path" data-old_color="#000000" fill="#009C23"/></g> </svg>
