<?xml version="1.0"?>
<svg xmlns="http://www.w3.org/2000/svg" id="Layer_3" enable-background="new 0 0 64 64" height="512px" viewBox="0 0 64 64" width="512px" class=""><g><g><g><path d="m28 56h8v6h-8z" fill="#8892a0" data-original="#8892A0" class="" data-old_color="#8892a0" style="fill:#BFE8E5"/></g><g><path d="m24 56h16c8.284 0 15-6.716 15-15v-18h-4v17c0 6.627-5.373 12-12 12h-14c-6.627 0-12-5.373-12-12v-17h-4v18c0 8.284 6.716 15 15 15z" fill="#4d5d7a" data-original="#4D5D7A" class="" data-old_color="#4d5d7a" style="fill:#C8D4EA"/></g><g><path d="m39 2h-14c-4.418 0-8 3.582-8 8v30c0 4.418 3.582 8 8 8h14c4.418 0 8-3.582 8-8v-30c0-4.418-3.582-8-8-8z" fill="#4d5d7a" data-original="#4D5D7A" class="" data-old_color="#4d5d7a" style="fill:#C8D4EA"/></g><g><path d="m25 2c-4.418 0-8 3.582-8 8v27.833c13.499-1.465 24-12.693 24-26.333 0-3.345-.638-6.542-1.79-9.489-.071-.002-.139-.011-.21-.011z" fill="#8892a0" data-original="#8892A0" class="" data-old_color="#8892a0" style="fill:#BFE8E5"/></g><g><path d="m17 11h8c1.105 0 2 .895 2 2 0 1.105-.895 2-2 2h-8" fill="#3d98f7" data-original="#3D98F7" class=""/></g><g><path d="m17 19h8c1.105 0 2 .895 2 2 0 1.105-.895 2-2 2h-8" fill="#3d98f7" data-original="#3D98F7" class=""/></g><g><path d="m17 27h8c1.105 0 2 .895 2 2 0 1.105-.895 2-2 2h-8" fill="#3d98f7" data-original="#3D98F7" class=""/></g><g><path d="m17 35h8c1.105 0 2 .895 2 2 0 1.105-.895 2-2 2h-8" fill="#3d98f7" data-original="#3D98F7" class=""/></g><g><path d="m47 11h-8c-1.105 0-2 .895-2 2 0 1.105.895 2 2 2h8" fill="#3d98f7" data-original="#3D98F7" class=""/></g><g><path d="m47 19h-8c-1.105 0-2 .895-2 2 0 1.105.895 2 2 2h8" fill="#3d98f7" data-original="#3D98F7" class=""/></g><g><path d="m47 27h-8c-1.105 0-2 .895-2 2 0 1.105.895 2 2 2h8" fill="#3d98f7" data-original="#3D98F7" class=""/></g><g><path d="m47 35h-8c-1.105 0-2 .895-2 2 0 1.105.895 2 2 2h8" fill="#3d98f7" data-original="#3D98F7" class=""/></g><g><path d="m39 49h-14c-4.963 0-9-4.037-9-9v-30c0-4.962 4.037-9 9-9h14c4.963 0 9 4.038 9 9v30c0 4.963-4.037 9-9 9zm-14-46c-3.859 0-7 3.14-7 7v30c0 3.859 3.141 7 7 7h14c3.859 0 7-3.141 7-7v-30c0-3.86-3.141-7-7-7z" data-original="#000000" class="active-path" style="fill:#09BE87" data-old_color="#000000"/></g><g><path d="m25 16h-8v-2h8c.552 0 1-.449 1-1s-.448-1-1-1h-8v-2h8c1.654 0 3 1.346 3 3s-1.346 3-3 3z" data-original="#000000" class="active-path" style="fill:#09BE87" data-old_color="#000000"/></g><g><path d="m25 24h-8v-2h8c.552 0 1-.449 1-1s-.448-1-1-1h-8v-2h8c1.654 0 3 1.346 3 3s-1.346 3-3 3z" data-original="#000000" class="active-path" style="fill:#09BE87" data-old_color="#000000"/></g><g><path d="m25 32h-8v-2h8c.552 0 1-.449 1-1s-.448-1-1-1h-8v-2h8c1.654 0 3 1.346 3 3s-1.346 3-3 3z" data-original="#000000" class="active-path" style="fill:#09BE87" data-old_color="#000000"/></g><g><path d="m25 40h-8v-2h8c.552 0 1-.448 1-1s-.448-1-1-1h-8v-2h8c1.654 0 3 1.346 3 3s-1.346 3-3 3z" data-original="#000000" class="active-path" style="fill:#09BE87" data-old_color="#000000"/></g><g><path d="m47 16h-8c-1.654 0-3-1.346-3-3s1.346-3 3-3h8v2h-8c-.552 0-1 .449-1 1s.448 1 1 1h8z" data-original="#000000" class="active-path" style="fill:#09BE87" data-old_color="#000000"/></g><g><path d="m47 24h-8c-1.654 0-3-1.346-3-3s1.346-3 3-3h8v2h-8c-.552 0-1 .449-1 1s.448 1 1 1h8z" data-original="#000000" class="active-path" style="fill:#09BE87" data-old_color="#000000"/></g><g><path d="m47 32h-8c-1.654 0-3-1.346-3-3s1.346-3 3-3h8v2h-8c-.552 0-1 .449-1 1s.448 1 1 1h8z" data-original="#000000" class="active-path" style="fill:#09BE87" data-old_color="#000000"/></g><g><path d="m47 40h-8c-1.654 0-3-1.346-3-3s1.346-3 3-3h8v2h-8c-.552 0-1 .448-1 1s.448 1 1 1h8z" data-original="#000000" class="active-path" style="fill:#09BE87" data-old_color="#000000"/></g><g><path d="m40 57h-16c-8.822 0-16-7.178-16-16v-18c0-.552.447-1 1-1h4c.553 0 1 .448 1 1v17c0 6.065 4.935 11 11 11h14c6.065 0 11-4.935 11-11v-17c0-.552.447-1 1-1h4c.553 0 1 .448 1 1v18c0 8.822-7.178 16-16 16zm-30-33v17c0 7.72 6.28 14 14 14h16c7.72 0 14-6.28 14-14v-17h-2v16c0 7.168-5.832 13-13 13h-14c-7.168 0-13-5.832-13-13v-16z" data-original="#000000" class="active-path" style="fill:#09BE87" data-old_color="#000000"/></g><g><path d="m27 56h2v7h-2z" data-original="#000000" class="active-path" style="fill:#09BE87" data-old_color="#000000"/></g><g><path d="m35 56h2v7h-2z" data-original="#000000" class="active-path" style="fill:#09BE87" data-old_color="#000000"/></g></g></g> </svg>
