<?xml version="1.0" encoding="iso-8859-1"?>
<!-- Generator: Adobe Illustrator 19.0.0, SVG Export Plug-In . SVG Version: 6.00 Build 0)  -->
<svg version="1.1" id="Layer_1" xmlns="http://www.w3.org/2000/svg" xmlns:xlink="http://www.w3.org/1999/xlink" x="0px" y="0px"
	 viewBox="0 0 512 512" style="enable-background:new 0 0 512 512;" xml:space="preserve">
<circle style="fill:#21D0C3;" cx="256" cy="256" r="256"/>
<path style="fill:#0E7886;" d="M107.175,104.379h314.656c7.84,0,14.239,6.726,14.239,14.955v43.216
	c0,8.229-6.4,14.954-14.239,14.954H107.175c-7.817,0-14.216-6.725-14.216-14.954v-43.216
	C92.958,111.105,99.358,104.379,107.175,104.379z"/>
<path style="fill:#086470;" d="M434.325,169.705c-2.423,4.638-7.12,7.8-12.494,7.8H107.175c-5.358,0-10.049-3.162-12.47-7.8H434.325
	z"/>
<g>
	<path style="fill:#ECF0F1;" d="M106.464,113.866h10.526v5.784h-10.526V113.866z M152.596,133.035h10.526v5.784h-10.526V133.035z
		 M137.219,133.035h10.526v5.784h-10.526V133.035z M121.842,133.035h10.525v5.784h-10.525V133.035z M106.464,133.035h10.526v5.784
		h-10.526V133.035z M152.596,123.451h10.526v5.784h-10.526V123.451z M137.219,123.451h10.526v5.784h-10.526V123.451z
		 M121.842,123.451h10.525v5.784h-10.525V123.451z M106.464,123.451h10.526v5.784h-10.526V123.451z M152.596,113.867h10.526v5.784
		h-10.526V113.867z M137.219,113.867h10.526v5.784h-10.526V113.867z M121.842,113.867h10.525v5.784h-10.525V113.867z"/>
	<path style="fill:#ECF0F1;" d="M365.785,117.093h8.63v7.722h-8.63V117.093z M407.367,117.093h8.63v7.722h-8.63V117.093z
		 M393.506,117.093h8.63v7.722h-8.63V117.093z M379.646,117.093h8.63v7.722h-8.63V117.093z"/>
</g>
<path style="fill:#FF5B62;" d="M306.64,114.803c3.497,0,6.336,2.838,6.336,6.344c0,3.497-2.838,6.336-6.336,6.336
	c-3.504,0-6.344-2.838-6.344-6.336C300.296,117.641,303.136,114.803,306.64,114.803z"/>
<path style="fill:#EDB937;" d="M273.61,114.803c3.497,0,6.336,2.838,6.336,6.344c0,3.497-2.838,6.336-6.336,6.336
	c-3.505,0-6.344-2.838-6.344-6.336C267.265,117.641,270.103,114.803,273.61,114.803z"/>
<path style="fill:#15BDB2;" d="M240.57,114.803c3.504,0,6.344,2.838,6.344,6.344c0,3.497-2.839,6.336-6.344,6.336
	c-3.497,0-6.336-2.838-6.336-6.336C234.235,117.641,237.073,114.803,240.57,114.803z"/>
<path style="fill:#C0C1C4;" d="M284.999,159.189h137.227c2.063,0,2.063,3.119,0,3.119H284.999
	C282.936,162.308,282.936,159.189,284.999,159.189z"/>
<path style="fill:#0E7886;" d="M107.175,188.655h314.656c7.84,0,14.239,6.726,14.239,14.955v43.216
	c0,8.229-6.4,14.954-14.239,14.954H107.175c-7.817,0-14.216-6.725-14.216-14.954v-43.216
	C92.958,195.38,99.358,188.655,107.175,188.655z"/>
<path style="fill:#086470;" d="M434.325,253.98c-2.423,4.638-7.12,7.8-12.494,7.8H107.175c-5.358,0-10.049-3.162-12.47-7.8
	L434.325,253.98L434.325,253.98z"/>
<g>
	<path style="fill:#ECF0F1;" d="M106.464,198.141h10.526v5.784h-10.526V198.141z M152.596,217.311h10.526v5.784h-10.526V217.311z
		 M137.219,217.311h10.526v5.784h-10.526V217.311z M121.842,217.311h10.525v5.784h-10.525V217.311z M106.464,217.311h10.526v5.784
		h-10.526V217.311z M152.596,207.726h10.526v5.784h-10.526V207.726z M137.219,207.726h10.526v5.784h-10.526V207.726z
		 M121.842,207.726h10.525v5.784h-10.525V207.726z M106.464,207.726h10.526v5.784h-10.526V207.726z M152.596,198.141h10.526v5.784
		h-10.526V198.141z M137.219,198.141h10.526v5.784h-10.526V198.141z M121.842,198.141h10.525v5.784h-10.525V198.141z"/>
	<path style="fill:#ECF0F1;" d="M365.785,201.369h8.63v7.722h-8.63V201.369z M407.367,201.369h8.63v7.722h-8.63V201.369z
		 M393.506,201.369h8.63v7.722h-8.63V201.369z M379.646,201.369h8.63v7.722h-8.63V201.369z"/>
</g>
<path style="fill:#FF5B62;" d="M306.64,199.078c3.497,0,6.336,2.838,6.336,6.344c0,3.497-2.838,6.336-6.336,6.336
	c-3.504,0-6.344-2.838-6.344-6.336C300.296,201.917,303.136,199.078,306.64,199.078z"/>
<path style="fill:#EDB937;" d="M273.61,199.078c3.497,0,6.336,2.838,6.336,6.344c0,3.497-2.838,6.336-6.336,6.336
	c-3.505,0-6.344-2.838-6.344-6.336C267.265,201.917,270.103,199.078,273.61,199.078z"/>
<path style="fill:#15BDB2;" d="M240.57,199.078c3.504,0,6.344,2.838,6.344,6.344c0,3.497-2.839,6.336-6.344,6.336
	c-3.497,0-6.336-2.838-6.336-6.336C234.235,201.917,237.073,199.078,240.57,199.078z"/>
<path style="fill:#C0C1C4;" d="M284.999,243.464h137.227c2.063,0,2.063,3.119,0,3.119H284.999
	C282.936,246.583,282.936,243.464,284.999,243.464z"/>
<path style="fill:#0E7886;" d="M107.175,272.93h314.656c7.84,0,14.239,6.726,14.239,14.955V331.1c0,8.229-6.4,14.954-14.239,14.954
	H107.175c-7.817,0-14.216-6.725-14.216-14.954v-43.216C92.958,279.656,99.358,272.93,107.175,272.93z"/>
<path style="fill:#086470;" d="M434.325,338.255c-2.423,4.638-7.12,7.8-12.494,7.8H107.175c-5.358,0-10.049-3.162-12.47-7.8H434.325
	z"/>
<g>
	<path style="fill:#ECF0F1;" d="M106.464,282.416h10.526v5.784h-10.526V282.416z M152.596,301.585h10.526v5.784h-10.526V301.585z
		 M137.219,301.585h10.526v5.784h-10.526V301.585z M121.842,301.585h10.525v5.784h-10.525V301.585z M106.464,301.585h10.526v5.784
		h-10.526V301.585z M152.596,292.001h10.526v5.784h-10.526V292.001z M137.219,292.001h10.526v5.784h-10.526V292.001z
		 M121.842,292.001h10.525v5.784h-10.525V292.001z M106.464,292.001h10.526v5.784h-10.526V292.001z M152.596,282.416h10.526v5.784
		h-10.526V282.416z M137.219,282.416h10.526v5.784h-10.526V282.416z M121.842,282.416h10.525v5.784h-10.525V282.416z"/>
	<path style="fill:#ECF0F1;" d="M365.785,285.644h8.63v7.722h-8.63V285.644z M407.367,285.644h8.63v7.722h-8.63V285.644z
		 M393.506,285.644h8.63v7.722h-8.63V285.644z M379.646,285.644h8.63v7.722h-8.63V285.644z"/>
</g>
<path style="fill:#FF5B62;" d="M306.64,283.354c3.497,0,6.336,2.838,6.336,6.344c0,3.497-2.838,6.336-6.336,6.336
	c-3.504,0-6.344-2.838-6.344-6.336C300.296,286.192,303.136,283.354,306.64,283.354z"/>
<path style="fill:#EDB937;" d="M273.61,283.354c3.497,0,6.336,2.838,6.336,6.344c0,3.497-2.838,6.336-6.336,6.336
	c-3.505,0-6.344-2.838-6.344-6.336C267.265,286.192,270.103,283.354,273.61,283.354z"/>
<path style="fill:#15BDB2;" d="M240.57,283.354c3.504,0,6.344,2.838,6.344,6.344c0,3.497-2.839,6.336-6.344,6.336
	c-3.497,0-6.336-2.838-6.336-6.336C234.235,286.192,237.073,283.354,240.57,283.354z"/>
<path style="fill:#C0C1C4;" d="M284.999,327.74h137.227c2.063,0,2.063,3.119,0,3.119H284.999
	C282.936,330.859,282.936,327.74,284.999,327.74z"/>
<path style="fill:#ECF0F1;" d="M66.761,428.405h378.478c-5.665,6.216-11.636,12.146-17.883,17.777H84.644
	C78.398,440.552,72.427,434.621,66.761,428.405z"/>
<path style="fill:#D1D2D4;" d="M81.656,443.435h348.688c-0.99,0.922-1.984,1.841-2.988,2.748H84.644
	C83.64,445.275,82.646,444.356,81.656,443.435z"/>
<rect x="252.906" y="346.054" style="fill:#ECF0F1;" width="23.22" height="82.349"/>
<g>
	<path style="fill:#D1D2D4;" d="M252.904,346.055h23.22v24.004L252.904,346.055z"/>
	<rect x="273.606" y="346.054" style="fill:#D1D2D4;" width="2.517" height="82.349"/>
</g>
<path style="fill:#FAD24D;" d="M245.464,422.422h38.102c2.266,0,4.102,1.836,4.102,4.102v21.539c0,2.266-1.836,4.102-4.102,4.102
	h-38.102c-2.266,0-4.102-1.836-4.102-4.102v-21.539C241.362,424.259,243.198,422.422,245.464,422.422z"/>
<path style="fill:#EDB937;" d="M287.478,449.288c-0.523,1.662-2.083,2.877-3.912,2.877h-38.102c-1.829,0-3.389-1.216-3.912-2.877
	H287.478z"/>
<g>
</g>
<g>
</g>
<g>
</g>
<g>
</g>
<g>
</g>
<g>
</g>
<g>
</g>
<g>
</g>
<g>
</g>
<g>
</g>
<g>
</g>
<g>
</g>
<g>
</g>
<g>
</g>
<g>
</g>
</svg>
