<?xml version="1.0" encoding="iso-8859-1"?>
<!-- Generator: Adobe Illustrator 19.0.0, SVG Export Plug-In . SVG Version: 6.00 Build 0)  -->
<svg version="1.1" id="Layer_1" xmlns="http://www.w3.org/2000/svg" xmlns:xlink="http://www.w3.org/1999/xlink" x="0px" y="0px"
	 viewBox="0 0 503.163 503.163" style="enable-background:new 0 0 503.163 503.163;" xml:space="preserve">
<g>
	<polygon style="fill:#2488FF;" points="173.497,409.058 193.497,429.058 237.839,429.058 257.839,409.058 	"/>
	<polygon style="fill:#2488FF;" points="212.94,289.058 59.641,289.058 56.568,292.13 73.496,309.058 232.94,309.058 	"/>
	<polygon style="fill:#2488FF;" points="172.94,249.058 152.94,229.058 119.641,229.058 99.641,249.058 	"/>
	<polygon style="fill:#2488FF;" points="292.94,369.058 272.94,349.058 113.496,349.058 133.497,369.058 	"/>
	<polygon style="fill:#FFCD00;" points="351.958,371.507 503.163,220.302 395.333,112.462 244.127,263.677 	"/>
	<polygon style="fill:#FFDA44;" points="244.127,263.677 395.333,112.462 287.503,4.632 122.143,169.982 136.29,155.84 	"/>
	<path style="fill:#005ECE;" d="M351.958,371.507c0,0-107.831-107.831-107.831-107.831L136.29,155.84L0,292.13l206.402,206.401
		h277.856v-40H264.934L351.958,371.507z M237.839,429.058h-44.342l-20-20h84.342L237.839,429.058z M56.568,292.13l3.072-3.072
		H212.94l20,20H73.496L56.568,292.13z M119.641,229.058h33.299l20,20H99.641L119.641,229.058z M272.94,349.058l20,20H133.497l-20-20
		H272.94z"/>
</g>
<g>
</g>
<g>
</g>
<g>
</g>
<g>
</g>
<g>
</g>
<g>
</g>
<g>
</g>
<g>
</g>
<g>
</g>
<g>
</g>
<g>
</g>
<g>
</g>
<g>
</g>
<g>
</g>
<g>
</g>
</svg>
