<?xml version="1.0" encoding="iso-8859-1"?>
<!-- Generator: Adobe Illustrator 19.0.0, SVG Export Plug-In . SVG Version: 6.00 Build 0)  -->
<svg version="1.1" id="Layer_1" xmlns="http://www.w3.org/2000/svg" xmlns:xlink="http://www.w3.org/1999/xlink" x="0px" y="0px"
	 viewBox="0 0 455 455" style="enable-background:new 0 0 455 455;" xml:space="preserve">
<g>
	<polygon style="fill:#46F8FF;" points="285.784,111.716 285.784,0 227.5,0 227.5,192.5 327.5,192.5 327.5,232.5 227.5,232.5 
		227.5,262.5 327.5,262.5 327.5,302.5 227.5,302.5 227.5,332.5 327.5,332.5 327.5,372.5 227.5,372.5 227.5,455 397.5,455 
		397.5,111.716 	"/>
	<polygon style="fill:#9BFBFF;" points="127.5,372.5 127.5,332.5 227.5,332.5 227.5,302.5 127.5,302.5 127.5,262.5 227.5,262.5 
		227.5,232.5 127.5,232.5 127.5,192.5 227.5,192.5 227.5,0 57.5,0 57.5,455 227.5,455 227.5,372.5 	"/>
	<polygon style="fill:#00D7DF;" points="397.5,111.716 285.784,0 285.784,111.716 	"/>
	<rect x="127.5" y="192.5" style="fill:#005ECE;" width="200" height="40"/>
	<rect x="127.5" y="332.5" style="fill:#005ECE;" width="200" height="40"/>
	<rect x="127.5" y="262.5" style="fill:#005ECE;" width="200" height="40"/>
</g>
<g>
</g>
<g>
</g>
<g>
</g>
<g>
</g>
<g>
</g>
<g>
</g>
<g>
</g>
<g>
</g>
<g>
</g>
<g>
</g>
<g>
</g>
<g>
</g>
<g>
</g>
<g>
</g>
<g>
</g>
</svg>
