<?xml version="1.0" encoding="iso-8859-1"?>
<!-- Generator: Adobe Illustrator 19.0.0, SVG Export Plug-In . SVG Version: 6.00 Build 0)  -->
<svg version="1.1" id="Layer_1" xmlns="http://www.w3.org/2000/svg" xmlns:xlink="http://www.w3.org/1999/xlink" x="0px" y="0px"
	 viewBox="0 0 495 495" style="enable-background:new 0 0 495 495;" xml:space="preserve">
<g>
	<path style="fill:#003F8A;" d="M282.5,0v40c31.71,0,57.5,25.79,57.5,57.5v265c0,51-41.5,92.5-92.5,92.5v40
		c73.06,0,132.5-59.44,132.5-132.5v-265C380,43.74,336.26,0,282.5,0z"/>
	<path style="fill:#005ECE;" d="M310,362.5v-265h-40v265c0,12.41-10.09,22.5-22.5,22.5v40C281.96,425,310,396.96,310,362.5z"/>
	<path style="fill:#2488FF;" d="M185,97.5v265c0,34.46,28.04,62.5,62.5,62.5v-40c-12.41,0-22.5-10.09-22.5-22.5v-265
		c0-31.71,25.79-57.5,57.5-57.5V0C228.74,0,185,43.74,185,97.5z"/>
	<path style="fill:#005ECE;" d="M155,362.5v-265h-40v265c0,73.06,59.44,132.5,132.5,132.5v-40C196.5,455,155,413.5,155,362.5z"/>
</g>
<g>
</g>
<g>
</g>
<g>
</g>
<g>
</g>
<g>
</g>
<g>
</g>
<g>
</g>
<g>
</g>
<g>
</g>
<g>
</g>
<g>
</g>
<g>
</g>
<g>
</g>
<g>
</g>
<g>
</g>
</svg>
