<?xml version="1.0" encoding="iso-8859-1"?>
<!-- Generator: Adobe Illustrator 19.0.0, SVG Export Plug-In . SVG Version: 6.00 Build 0)  -->
<svg version="1.1" id="Layer_1" xmlns="http://www.w3.org/2000/svg" xmlns:xlink="http://www.w3.org/1999/xlink" x="0px" y="0px"
	 viewBox="0 0 495 495" style="enable-background:new 0 0 495 495;" xml:space="preserve">
<g>
	<rect x="247.5" style="fill:#46F8FF;" width="170" height="92.5"/>
	<rect x="77.5" style="fill:#9BFBFF;" width="170" height="92.5"/>
	<polygon style="fill:#FFDA44;" points="247.5,232.5 247.5,92.5 0,92.5 0,412.5 77.5,412.5 77.5,232.5 	"/>
	<path style="fill:#FFCD00;" d="M495,92.5H247.5v140h170v180H495V92.5z M397.5,202.5c-11.046,0-20-8.954-20-20s8.954-20,20-20
		s20,8.954,20,20S408.546,202.5,397.5,202.5z"/>
	<circle style="fill:#FFFFFF;" cx="397.5" cy="182.5" r="20"/>
	<polygon style="fill:#9BFBFF;" points="147.5,412.5 147.5,372.5 247.5,372.5 247.5,342.5 147.5,342.5 147.5,302.5 247.5,302.5 
		247.5,232.5 77.5,232.5 77.5,495 247.5,495 247.5,412.5 	"/>
	<polygon style="fill:#46F8FF;" points="247.5,232.5 247.5,302.5 347.5,302.5 347.5,342.5 247.5,342.5 247.5,372.5 347.5,372.5 
		347.5,412.5 247.5,412.5 247.5,495 417.5,495 417.5,232.5 	"/>
	<rect x="147.5" y="372.5" style="fill:#005ECE;" width="200" height="40"/>
	<rect x="147.5" y="302.5" style="fill:#005ECE;" width="200" height="40"/>
</g>
<g>
</g>
<g>
</g>
<g>
</g>
<g>
</g>
<g>
</g>
<g>
</g>
<g>
</g>
<g>
</g>
<g>
</g>
<g>
</g>
<g>
</g>
<g>
</g>
<g>
</g>
<g>
</g>
<g>
</g>
</svg>
