<?xml version="1.0" encoding="iso-8859-1"?>
<!-- Generator: Adobe Illustrator 19.0.0, SVG Export Plug-In . SVG Version: 6.00 Build 0)  -->
<svg version="1.1" id="Layer_1" xmlns="http://www.w3.org/2000/svg" xmlns:xlink="http://www.w3.org/1999/xlink" x="0px" y="0px"
	 viewBox="0 0 960.583 960.583" style="enable-background:new 0 0 960.583 960.583;" xml:space="preserve">
<g>
	<polygon style="fill:#2488FF;" points="581.664,591.633 532,591.633 532,631.633 602.336,631.633 689.501,508.708 664.983,474.132 
			"/>
	<polygon style="fill:#2488FF;" points="689.501,439.556 714.019,474.132 797.336,356.633 847,356.633 847,316.633 776.664,316.633 
			"/>
	<path style="fill:#005ECE;" d="M923.202,362.801c0.741-0.69,1.679-1.441,2.802-2.243c1.603-1.146,3.382-2.316,5.29-3.48
		c1.893-1.154,3.843-2.306,5.797-3.422c1.964-1.121,3.646-2.104,5.047-2.943c2.074-1.227,4.114-2.579,6.062-4.019
		c1.978-1.458,3.798-3.182,5.408-5.123c1.613-1.945,2.936-4.181,3.929-6.643c1-2.475,1.507-5.316,1.507-8.447
		c0-7.588-2.771-13.699-8.234-18.166c-5.434-4.441-13.336-6.693-23.486-6.693c-4.113,0-8.127,0.38-11.928,1.129
		c-3.808,0.755-7.347,1.776-10.517,3.036c-3.18,1.263-6.08,2.713-8.621,4.313c-2.558,1.611-4.619,3.29-6.128,4.99l-0.291,0.328
		l14.942,17.285l0.379-0.431c2.66-3.029,5.452-5.521,8.299-7.403c2.797-1.85,6.143-2.787,9.944-2.787
		c3.313,0,5.89,0.761,7.656,2.261c1.766,1.503,2.624,3.439,2.624,5.919c0,1.204-0.333,2.228-1.018,3.127
		c-0.717,0.939-1.928,2.011-3.599,3.184c-1.709,1.201-4.048,2.604-6.95,4.17c-2.942,1.589-6.608,3.596-11,6.025
		c-4.118,2.34-7.586,4.763-10.308,7.202c-2.736,2.454-4.938,5.159-6.542,8.039c-1.608,2.885-2.758,6.115-3.415,9.601
		c-0.656,3.466-0.988,7.453-0.988,11.853v0.5h70.72v-21.16H923.202z"/>
	<polygon style="fill:#005ECE;" points="602.337,316.633 532,316.633 532,356.633 581.665,356.633 664.983,474.132 689.501,508.708 
		776.667,631.633 847,631.633 847,591.633 797.339,591.633 714.019,474.132 689.501,439.556 	"/>
</g>
<g>
	<polygon style="fill:#2488FF;" points="157.501,439.556 182.019,474.132 265.336,356.633 315,356.633 315,316.633 244.664,316.633 
			"/>
	<polygon style="fill:#2488FF;" points="49.664,591.633 0,591.633 0,631.633 70.336,631.633 157.501,508.708 132.983,474.132 	"/>
	<path style="fill:#005ECE;" d="M391.202,637.801c0.741-0.69,1.679-1.441,2.802-2.243c1.603-1.146,3.382-2.316,5.29-3.48
		c1.893-1.154,3.843-2.306,5.797-3.422c1.964-1.121,3.646-2.104,5.047-2.943c2.074-1.227,4.114-2.579,6.062-4.019
		c1.978-1.458,3.798-3.182,5.408-5.123c1.613-1.945,2.936-4.181,3.929-6.643c1-2.475,1.507-5.316,1.507-8.447
		c0-7.588-2.771-13.699-8.234-18.166c-5.434-4.441-13.336-6.693-23.486-6.693c-4.113,0-8.127,0.38-11.928,1.129
		c-3.808,0.755-7.347,1.776-10.517,3.036c-3.18,1.263-6.08,2.713-8.621,4.313c-2.558,1.611-4.619,3.29-6.128,4.99l-0.291,0.328
		l14.942,17.285l0.379-0.431c2.66-3.029,5.452-5.521,8.299-7.403c2.797-1.85,6.143-2.787,9.944-2.787
		c3.313,0,5.89,0.761,7.656,2.261c1.766,1.503,2.624,3.439,2.624,5.919c0,1.204-0.333,2.228-1.018,3.127
		c-0.717,0.939-1.928,2.011-3.599,3.184c-1.709,1.201-4.048,2.604-6.95,4.17c-2.942,1.589-6.608,3.596-11,6.025
		c-4.118,2.34-7.586,4.763-10.308,7.202c-2.736,2.454-4.938,5.159-6.542,8.039c-1.608,2.885-2.758,6.115-3.415,9.601
		c-0.656,3.466-0.988,7.453-0.988,11.853v0.5h70.72v-21.16H391.202z"/>
	<polygon style="fill:#005ECE;" points="70.337,316.633 0,316.633 0,356.633 49.665,356.633 132.983,474.132 157.501,508.708 
		244.667,631.633 315,631.633 315,591.633 265.339,591.633 182.019,474.132 157.501,439.556 	"/>
</g>
<g>
</g>
<g>
</g>
<g>
</g>
<g>
</g>
<g>
</g>
<g>
</g>
<g>
</g>
<g>
</g>
<g>
</g>
<g>
</g>
<g>
</g>
<g>
</g>
<g>
</g>
<g>
</g>
<g>
</g>
</svg>
