<?xml version="1.0" encoding="iso-8859-1"?>
<!-- Generator: Adobe Illustrator 19.0.0, SVG Export Plug-In . SVG Version: 6.00 Build 0)  -->
<svg version="1.1" id="Capa_1" xmlns="http://www.w3.org/2000/svg" xmlns:xlink="http://www.w3.org/1999/xlink" x="0px" y="0px"
	 viewBox="0 0 480.653 480.653" style="enable-background:new 0 0 480.653 480.653;" xml:space="preserve">
<g>
	<rect x="114.939" y="91.429" style="fill:#1185E0;" width="31.347" height="297.796"/>
	<path style="fill:#1185E0;" d="M454.531,75.755H26.122C11.494,75.755,0,87.249,0,101.878v276.898
		c0,14.629,11.494,26.122,26.122,26.122h428.408c14.629,0,26.122-11.494,26.122-26.122V101.878
		C480.653,87.249,469.159,75.755,454.531,75.755z M344.816,373.551H31.347v-41.796h99.265v-31.347H31.347v-47.02h99.265v-31.347
		H31.347v-47.02h99.265v-31.347H31.347v-36.571h313.469V373.551z M449.306,373.551h-73.143v-41.796h73.143V373.551z
		 M449.306,300.408h-73.143v-47.02h73.143V300.408z M449.306,222.041h-73.143v-47.02h73.143V222.041z M449.306,143.673h-73.143
		v-36.571h73.143V143.673z"/>
</g>
<path style="fill:#4DCFE0;" d="M198.531,316.082c-2.612,0-5.224-0.522-7.314-2.09c-5.224-2.612-8.359-7.837-8.359-13.584V175.02
	c0-5.747,3.135-10.971,8.359-13.584c5.225-2.612,10.971-2.612,16.196,0.522l99.265,62.694c4.702,2.612,7.314,7.837,7.314,13.061
	s-2.612,10.449-7.314,13.061l-99.265,62.694C204.278,315.037,201.665,316.082,198.531,316.082z M214.204,203.233v68.441
	l54.335-34.482L214.204,203.233z"/>
<g>
</g>
<g>
</g>
<g>
</g>
<g>
</g>
<g>
</g>
<g>
</g>
<g>
</g>
<g>
</g>
<g>
</g>
<g>
</g>
<g>
</g>
<g>
</g>
<g>
</g>
<g>
</g>
<g>
</g>
</svg>
